# xmcd CD database file generated by Grip 3.0.3
# 
# Track frame offsets:
#       150
#       13614
#       25621
#       38962
#       52315
#       62798
#       77141
#       90140
#       102016
#       115784
#       129234
#       143573
#       158847
#       172279
#       187104
# 
# Disc length: 2679 seconds
# 
# Revision: 0
# Processed by: cddbd v1.4PL0 Copyright (c) Steve Scherf et al.
# Submitted via: Grip 3.0.3
# 
DISCID=bf0a750f
DTITLE=John Lee Hooker - Boom Boom - Disc 1
DYEAR=2002
DGENRE=blues
TTITLE0=Shake, Holler and Run
TTITLE1=I'm Ready
TTITLE2=Please The Me Back
TTITLE3=Ride 'til I Die
TTITLE4=Maudie
TTITLE5=I Love You Baby
TTITLE6=Hug and Squeeze You
TTITLE7=Love Money Can't Buy
TTITLE8=It's Stomin' And Rainin'
TTITLE9=To Much Boogie
TTITLE10=Cool Little Car
TTITLE11=Half A Stranger
TTITLE12=The Syndicator
TTITLE13=It's Been A Long Time Baby
TTITLE14=I Wonder Little Darling
EXTD=
EXTT0=
EXTT1=
EXTT2=
EXTT3=
EXTT4=
EXTT5=
EXTT6=
EXTT7=
EXTT8=
EXTT9=
EXTT10=
EXTT11=
EXTT12=
EXTT13=
EXTT14=
PLAYORDER=
